<!DOCTYPE svg PUBLIC "-//W3C//DTD SVG 1.1//EN"
 "http://www.w3.org/Graphics/SVG/1.1/DTD/svg11.dtd">
<svg version="1.1"
 width="600px" height="78px"
 viewBox="0 0 600 78"
 xmlns="http://www.w3.org/2000/svg" shape-rendering="crispEdges"
 stroke-width="1" text-rendering="geometricPrecision">
<polygon fill="white" points="144,7 154,7 154,16 144,16"/>
<text x="150" y="16" textLength="8" font-family="Helvetica" font-size="12" fill="black" text-anchor="middle">

A
</text>
<polygon fill="white" points="444,7 454,7 454,16 444,16"/>
<text x="450" y="16" textLength="8" font-family="Helvetica" font-size="12" fill="black" text-anchor="middle">

B
</text>
<line x1="150" y1="22" x2="150" y2="50" stroke="black"/>
<line x1="450" y1="22" x2="450" y2="50" stroke="black"/>
<line x1="150" y1="33" x2="450" y2="33" stroke="black"/>
<line x1="450" y1="33" x2="440" y2="39" stroke="black"/>
<polygon fill="white" points="238,23 361,23 361,32 238,32"/>
<text x="239" y="32" textLength="121" font-family="Helvetica" font-size="12" fill="black">
send something freaky
</text>
<line x1="150" y1="50" x2="150" y2="78" stroke="black"/>
<line x1="450" y1="50" x2="450" y2="78" stroke="black"/>
<line x1="450" y1="61" x2="150" y2="61" stroke="black"/>
<line x1="150" y1="61" x2="160" y2="67" stroke="black"/>
<polygon fill="white" points="232,51 367,51 367,60 232,60"/>
<text x="233" y="60" textLength="133" font-family="Helvetica" font-size="12" fill="black">
receive tat freaky answer
</text>
<line x1="150" y1="72" x2="150" y2="78" stroke="black"/>
<line x1="450" y1="72" x2="450" y2="78" stroke="black"/>
</svg>
